# xmcd
#
# Track frame offsets: 
#        150
#        13709
#        29319
#        42839
#        57317
#        71219
#        86011
#        101457
#        113753
#        129113
#        141553
#        155402
#        169210
#        184864
#        198526
#
# Disc length: 2825 seconds
#
# Revision: 0
# Processed by: cddbd v1.5.2PL0 Copyright (c) Steve Scherf et al.
# Submitted via: ExactAudioCopy v0.99pb4
#
DISCID=d10b070f
DTITLE=Marc Pircher - 20 Jahre [CD 1)
DYEAR=2012
DGENRE=Country
TTITLE0=Ich schwör
TTITLE1=Der Turm von Babylon
TTITLE2=Einfach genial
TTITLE3=Diese Nacht oder nie
TTITLE4=Die schönste Liebe
TTITLE5=Die Hände hoch
TTITLE6=Wenn sie die alten Lieder hört
TTITLE7=Es soll da guat geh'n
TTITLE8=Nur auf'm Berg
TTITLE9=In dieser Hütte ist immer was los
TTITLE10=Anna Lena
TTITLE11=Ja sag'n zum Leben
TTITLE12=Das Beste das bist Du für mich
TTITLE13=Der Himmel von Tirol
TTITLE14=Es war'n mehr als 7 Sünden
EXTD=
EXTT0=
EXTT1=
EXTT2=
EXTT3=
EXTT4=
EXTT5=
EXTT6=
EXTT7=
EXTT8=
EXTT9=
EXTT10=
EXTT11=
EXTT12=
EXTT13=
EXTT14=
PLAYORDER=
